{
.appVersion = "983";
copyright = "Copyright © 2014, 2015 Adobe Systems Incorporated (http://www.adobe.com/).";
customParameters = (
{
name = description;
value = "Dr. Ken Lunde (project architect, glyph set definition & overall production); Masataka HATTORI 服部正貴 (production & ideograph elements)";
},
{
name = license;
value = "This Font Software is licensed under the SIL Open Font License, Version 1.1. This Font Software is distributed on an \"AS IS\" BASIS, WITHOUT WARRANTIES OR CONDITIONS OF ANY KIND, either express or implied. See the SIL Open Font License for the specific language, permissions and limitations governing your use of this Font Software.";
},
{
name = licenseURL;
value = "http://scripts.sil.org/OFL";
},
{
name = vendorID;
value = GOOG;
},
{
name = panose;
value = (
2,
11,
10,
0,
0,
0,
0,
0,
0,
0
);
},
{
name = unicodeRanges;
value = (
0,
1,
28,
29,
36,
42,
43,
44,
45,
48,
49,
50,
51,
52,
54,
55,
56,
57,
59,
61,
65,
66,
68
);
},
{
name = codePageRanges;
value = (
1252,
1250,
1251,
1258,
932,
936,
949,
1361
);
},
{
name = ROS;
value = "Adobe, Identity, 0";
},
{
name = glyphOrder;
value = (
.notdef,
space
);
}
);
date = "2015-06-15 05:08:37 +0000";
designer = "Ryoko NISHIZUKA 西塚涼子 (kana & ideographs); Paul D. Hunt (Latin, Greek & Cyrillic); Wenlong ZHANG 张文龙 (bopomofo); Sandoll Communication 산돌커뮤니케이션, Soo-young JANG 장수영 & Joo-yeon KANG 강주연 (hangul elements, letters & syllables)";
designerURL = "http://www.adobe.com/type/";
familyName = "Yaku Han JP";
fontMaster = (
{
alignmentZones = (
"{1900, 0}",
"{1100, 0}",
"{1100, 0}",
"{1100, 0}",
"{1100, 0}",
"{1100, 0}",
"{1100, 0}",
"{1100, 0}",
"{1100, 0}",
"{1100, 0}",
"{1100, 0}",
"{1100, 0}",
"{749, 0}",
"{748, 12}",
"{748, 12}",
"{748, 12}",
"{744, 14}",
"{744, 14}",
"{730, 14}",
"{730, 14}",
"{572, 13}",
"{572, 0}",
"{571, 14}",
"{569, 14}",
"{0, 0}",
"{0, -12}",
"{0, -12}",
"{0, -14}",
"{0, -14}",
"{0, -14}",
"{0, -14}",
"{-190, -12}",
"{-207, -14}",
"{-207, -16}",
"{-250, 0}",
"{-250, 0}",

glyphs = (
{
glyphname = .notdef;
lastChange = "2017-04-15 12:56:49 +0000";
layers = (
{
layerId = "2D3EB4F9-7033-45C7-BDD9-00BB8F447983";
paths = (
{
closed = 1;
nodes = (
"100 -120 LINE",
"900 -120 LINE",
"900 880 LINE",
"100 880 LINE"
);
},
{
closed = 1;
nodes = (
"500 421 LINE",
"182 830 LINE",
"818 830 LINE"
);
},
{
closed = 1;
nodes = (
"532 380 LINE",
"850 789 LINE",
"850 -29 LINE"
);
},
{
closed = 1;
nodes = (
"182 -70 LINE",
"500 339 LINE",
"818 -70 LINE"
);
},
{
closed = 1;
nodes = (
"150 789 LINE",
"468 380 LINE",
"150 -29 LINE"
);
}
);
width = 1000;
}
);
note = .notdef;
},
{
glyphname = "comma-han";
lastChange = "2017-04-16 02:17:47 +0000";
layers = (
{
layerId = "2D3EB4F9-7033-45C7-BDD9-00BB8F447983";
paths = (
{
closed = 1;
nodes = (
"391 35 LINE",
"347 91 OFFCURVE",
"247 194 OFFCURVE",
"177 252 CURVE",
"50 143 LINE",
"119 82 OFFCURVE",
"203 -4 OFFCURVE",
"262 -76 CURVE"
);
}
);
vertWidth = 1000;
width = 591;
}
);
note = cid01390;
unicode = 3001;
},
{
glyphname = ellipsis;
lastChange = "2017-04-15 12:56:49 +0000";
layers = (
{
layerId = "2D3EB4F9-7033-45C7-BDD9-00BB8F447983";
paths = (
{
closed = 1;
nodes = (
"77 330 OFFCURVE",
"117 290 OFFCURVE",
"167 290 CURVE SMOOTH",
"217 290 OFFCURVE",
"257 330 OFFCURVE",
"257 380 CURVE SMOOTH",
"257 430 OFFCURVE",
"217 470 OFFCURVE",
"167 470 CURVE SMOOTH",
"117 470 OFFCURVE",
"77 430 OFFCURVE",
"77 380 CURVE SMOOTH"
);
},
{
closed = 1;
nodes = (
"410 330 OFFCURVE",
"450 290 OFFCURVE",
"500 290 CURVE SMOOTH",
"550 290 OFFCURVE",
"590 330 OFFCURVE",
"590 380 CURVE SMOOTH",
"590 430 OFFCURVE",
"550 470 OFFCURVE",
"500 470 CURVE SMOOTH",
"450 470 OFFCURVE",
"410 430 OFFCURVE",
"410 380 CURVE SMOOTH"
);
},
{
closed = 1;
nodes = (
"743 330 OFFCURVE",
"783 290 OFFCURVE",
"833 290 CURVE SMOOTH",
"883 290 OFFCURVE",
"923 330 OFFCURVE",
"923 380 CURVE SMOOTH",
"923 430 OFFCURVE",
"883 470 OFFCURVE",
"833 470 CURVE SMOOTH",
"783 470 OFFCURVE",
"743 430 OFFCURVE",
"743 380 CURVE SMOOTH"
);
}
);
width = 1000;
}
);
note = cid00728;
unicode = 2026;
},
{
glyphname = "period-han";
lastChange = "2017-04-16 02:17:55 +0000";
layers = (
{
layerId = "2D3EB4F9-7033-45C7-BDD9-00BB8F447983";
paths = (
{
closed = 1;
nodes = (
"125 250 OFFCURVE",
"50 175 OFFCURVE",
"50 83 CURVE SMOOTH",
"50 -9 OFFCURVE",
"125 -84 OFFCURVE",
"217 -84 CURVE SMOOTH",
"310 -84 OFFCURVE",
"384 -9 OFFCURVE",
"384 83 CURVE SMOOTH",
"384 175 OFFCURVE",
"310 250 OFFCURVE",
"217 250 CURVE SMOOTH"
);
},
{
closed = 1;
nodes = (
"172 0 OFFCURVE",
"134 37 OFFCURVE",
"134 83 CURVE SMOOTH",
"134 129 OFFCURVE",
"172 166 OFFCURVE",
"217 166 CURVE SMOOTH",
"263 166 OFFCURVE",
"300 129 OFFCURVE",
"300 83 CURVE SMOOTH",
"300 37 OFFCURVE",
"263 0 OFFCURVE",
"217 0 CURVE SMOOTH"
);
}
);
vertWidth = 1000;
width = 784;
}
);
note = cid01391;
unicode = 3002;
},
{
glyphname = colon.full;
lastChange = "2017-04-16 02:18:14 +0000";
layers = (
{
layerId = "2D3EB4F9-7033-45C7-BDD9-00BB8F447983";
paths = (
{
closed = 1;
nodes = (
"316 500 OFFCURVE",
"362 546 OFFCURVE",
"362 604 CURVE SMOOTH",
"362 664 OFFCURVE",
"316 710 OFFCURVE",
"256 710 CURVE SMOOTH",
"196 710 OFFCURVE",
"150 664 OFFCURVE",
"150 604 CURVE SMOOTH",
"150 546 OFFCURVE",
"196 500 OFFCURVE",
"256 500 CURVE SMOOTH"
);
},
{
closed = 1;
nodes = (
"316 30 OFFCURVE",
"362 76 OFFCURVE",
"362 134 CURVE SMOOTH",
"362 194 OFFCURVE",
"316 240 OFFCURVE",
"256 240 CURVE SMOOTH",
"196 240 OFFCURVE",
"150 194 OFFCURVE",
"150 134 CURVE SMOOTH",
"150 76 OFFCURVE",
"196 30 OFFCURVE",
"256 30 CURVE SMOOTH"
);
}
);
vertWidth = 1000;
width = 512;
}
);
note = cid59017;
unicode = FF1A;
},
{
glyphname = exclam.full;
lastChange = "2017-04-16 02:18:14 +0000";
layers = (
{
layerId = "2D3EB4F9-7033-45C7-BDD9-00BB8F447983";
paths = (
{
closed = 1;
nodes = (
"206 266 LINE",
"331 266 LINE",
"372 582 LINE",
"378 748 LINE",
"159 748 LINE",
"165 582 LINE"
);
},
{
closed = 1;
nodes = (
"336 -12 OFFCURVE",
"386 34 OFFCURVE",
"386 98 CURVE SMOOTH",
"386 160 OFFCURVE",
"336 208 OFFCURVE",
"268 208 CURVE SMOOTH",
"200 208 OFFCURVE",
"150 160 OFFCURVE",
"150 98 CURVE SMOOTH",
"150 34 OFFCURVE",
"200 -12 OFFCURVE",
"268 -12 CURVE SMOOTH"
);
}
);
width = 536;
}
);
note = cid58992;
unicode = FF01;
},
{
glyphname = question.full;
lastChange = "2017-04-16 02:18:14 +0000";
layers = (
{
layerId = "2D3EB4F9-7033-45C7-BDD9-00BB8F447983";
paths = (
{
closed = 1;
nodes = (
"476 266 LINE",
"467 398 OFFCURVE",
"674 408 OFFCURVE",
"674 552 CURVE SMOOTH",
"674 695 OFFCURVE",
"559 760 OFFCURVE",
"412 760 CURVE SMOOTH",
"306 760 OFFCURVE",
"212 710 OFFCURVE",
"150 634 CURVE",
"248 544 LINE",
"288 590 OFFCURVE",
"334 616 OFFCURVE",
"391 616 CURVE SMOOTH",
"457 616 OFFCURVE",
"504 591 OFFCURVE",
"504 536 CURVE SMOOTH",
"504 448 OFFCURVE",
"304 418 OFFCURVE",
"320 266 CURVE"
);
},
{
closed = 1;
nodes = (
"280 35 OFFCURVE",
"329 -12 OFFCURVE",
"398 -12 CURVE SMOOTH",
"467 -12 OFFCURVE",
"516 35 OFFCURVE",
"516 99 CURVE SMOOTH",
"516 163 OFFCURVE",
"467 208 OFFCURVE",
"398 208 CURVE SMOOTH",
"329 208 OFFCURVE",
"280 163 OFFCURVE",
"280 99 CURVE SMOOTH"
);
}
);
width = 824;
}
);
note = cid59022;
unicode = FF1F;
},
{
glyphname = semicolon.full;
lastChange = "2017-04-16 02:18:14 +0000";
layers = (
{
layerId = "2D3EB4F9-7033-45C7-BDD9-00BB8F447983";
paths = (
{
closed = 1;
nodes = (
"333 500 OFFCURVE",
"379 546 OFFCURVE",
"379 604 CURVE SMOOTH",
"379 664 OFFCURVE",
"333 710 OFFCURVE",
"273 710 CURVE SMOOTH",
"213 710 OFFCURVE",
"167 664 OFFCURVE",
"167 604 CURVE SMOOTH",
"167 546 OFFCURVE",
"213 500 OFFCURVE",
"273 500 CURVE SMOOTH"
);
},
{
closed = 1;
nodes = (
"283 89 LINE",
"282 33 OFFCURVE",
"236 -20 OFFCURVE",
"150 -49 CURVE",
"188 -145 LINE",
"326 -103 OFFCURVE",
"400 -3 OFFCURVE",
"400 125 CURVE SMOOTH",
"400 229 OFFCURVE",
"356 291 OFFCURVE",
"278 291 CURVE SMOOTH",
"218 291 OFFCURVE",
"168 253 OFFCURVE",
"168 191 CURVE SMOOTH",
"168 127 OFFCURVE",
"220 89 OFFCURVE",
"275 89 CURVE SMOOTH"
);
}
);
vertWidth = 1000;
width = 550;
}
);
note = cid59018;
unicode = FF1B;
},
{
glyphname = anglebracketleft;
lastChange = "2017-04-16 02:18:56 +0000";
layers = (
{
layerId = "2D3EB4F9-7033-45C7-BDD9-00BB8F447983";
paths = (
{
closed = 1;
nodes = (
"349 380 LINE",
"600 805 LINE",
"481 855 LINE",
"200 380 LINE",
"481 -95 LINE",
"600 -45 LINE"
);
}
);
vertWidth = 1000;
width = 630;
}
);
note = cid01397;
unicode = 3008;
},
{
glyphname = anglebracketright;
lastChange = "2017-04-16 02:19:06 +0000";
layers = (
{
layerId = "2D3EB4F9-7033-45C7-BDD9-00BB8F447983";
paths = (
{
closed = 1;
nodes = (
"149 -95 LINE",
"430 380 LINE",
"149 855 LINE",
"30 805 LINE",
"281 380 LINE",
"30 -45 LINE"
);
}
);
vertWidth = 1000;
width = 630;
}
);
note = cid01398;
unicode = 3009;
},
{
glyphname = blacklenticularbracketleft;
lastChange = "2017-04-16 02:18:56 +0000";
layers = (
{
layerId = "2D3EB4F9-7033-45C7-BDD9-00BB8F447983";
paths = (
{
closed = 1;
nodes = (
"200 855 LINE",
"200 -95 LINE",
"518 -95 LINE",
"518 -90 LINE",
"409 4 OFFCURVE",
"320 173 OFFCURVE",
"320 380 CURVE SMOOTH",
"320 587 OFFCURVE",
"409 756 OFFCURVE",
"518 850 CURVE",
"518 855 LINE"
);
}
);
vertWidth = 1000;
width = 548;
}
);
note = cid01405;
unicode = 3010;
},
{
glyphname = blacklenticularbracketright;
lastChange = "2017-04-16 02:19:06 +0000";
layers = (
{
layerId = "2D3EB4F9-7033-45C7-BDD9-00BB8F447983";
paths = (
{
closed = 1;
nodes = (
"348 855 LINE",
"30 855 LINE",
"30 850 LINE",
"139 756 OFFCURVE",
"228 587 OFFCURVE",
"228 380 CURVE SMOOTH",
"228 173 OFFCURVE",
"139 4 OFFCURVE",
"30 -90 CURVE",
"30 -95 LINE",
"348 -95 LINE"
);
}
);
vertWidth = 1000;
width = 548;
}
);
note = cid01406;
unicode = 3011;
},
{
glyphname = braceleft.full;
lastChange = "2017-04-16 02:18:56 +0000";
layers = (
{
layerId = "2D3EB4F9-7033-45C7-BDD9-00BB8F447983";
paths = (
{
closed = 1;
nodes = (
"500 -96 LINE",
"500 -5 LINE",
"471 -5 LINE SMOOTH",
"425 -5 OFFCURVE",
"414 9 OFFCURVE",
"414 70 CURVE SMOOTH",
"414 129 OFFCURVE",
"418 182 OFFCURVE",
"418 247 CURVE SMOOTH",
"418 333 OFFCURVE",
"390 365 OFFCURVE",
"333 378 CURVE",
"333 382 LINE",
"390 396 OFFCURVE",
"418 428 OFFCURVE",
"418 513 CURVE SMOOTH",
"418 580 OFFCURVE",
"414 633 OFFCURVE",
"414 691 CURVE SMOOTH",
"414 752 OFFCURVE",
"425 766 OFFCURVE",
"471 766 CURVE SMOOTH",
"500 766 LINE",
"500 857 LINE",
"428 857 LINE SMOOTH",
"329 857 OFFCURVE",
"284 818 OFFCURVE",
"284 697 CURVE SMOOTH",
"284 620 OFFCURVE",
"295 582 OFFCURVE",
"295 512 CURVE SMOOTH",
"295 473 OFFCURVE",
"271 432 OFFCURVE",
"200 430 CURVE",
"200 331 LINE",
"271 329 OFFCURVE",
"295 288 OFFCURVE",
"295 249 CURVE SMOOTH",
"295 179 OFFCURVE",
"284 141 OFFCURVE",
"284 63 CURVE SMOOTH",
"284 -57 OFFCURVE",
"329 -96 OFFCURVE",
"428 -96 CURVE SMOOTH"
);
}
);
vertWidth = 1000;
width = 530;
}
);
note = cid59082;
unicode = FF5B;
},
{
glyphname = braceright.full;
lastChange = "2017-04-15 12:56:35 +0000";
layers = (
{
layerId = "2D3EB4F9-7033-45C7-BDD9-00BB8F447983";
paths = (
{
closed = 1;
nodes = (
"98 -96 LINE SMOOTH",
"197 -96 OFFCURVE",
"242 -57 OFFCURVE",
"242 63 CURVE SMOOTH",
"242 141 OFFCURVE",
"231 179 OFFCURVE",
"231 249 CURVE SMOOTH",
"231 288 OFFCURVE",
"255 329 OFFCURVE",
"326 331 CURVE",
"326 430 LINE",
"255 432 OFFCURVE",
"231 473 OFFCURVE",
"231 512 CURVE SMOOTH",
"231 582 OFFCURVE",
"242 620 OFFCURVE",
"242 697 CURVE SMOOTH",
"242 818 OFFCURVE",
"197 857 OFFCURVE",
"98 857 CURVE SMOOTH",
"26 857 LINE",
"26 766 LINE",
"55 766 LINE SMOOTH",
"101 766 OFFCURVE",
"112 752 OFFCURVE",
"112 691 CURVE SMOOTH",
"112 633 OFFCURVE",
"108 580 OFFCURVE",
"108 513 CURVE SMOOTH",
"108 428 OFFCURVE",
"136 396 OFFCURVE",
"193 382 CURVE",
"193 378 LINE",
"136 365 OFFCURVE",
"108 333 OFFCURVE",
"108 247 CURVE SMOOTH",
"108 182 OFFCURVE",
"112 129 OFFCURVE",
"112 70 CURVE SMOOTH",
"112 9 OFFCURVE",
"101 -5 OFFCURVE",
"55 -5 CURVE SMOOTH",
"26 -5 LINE",
"26 -96 LINE"
);
}
);
vertWidth = 1000;
width = 526;
}
);
note = cid59084;
unicode = FF5D;
},
{
glyphname = cornerbracketleft;
lastChange = "2017-04-16 02:18:56 +0000";
layers = (
{
layerId = "2D3EB4F9-7033-45C7-BDD9-00BB8F447983";
paths = (
{
closed = 1;
nodes = (
"200 220 LINE",
"343 220 LINE",
"343 725 LINE",
"540 725 LINE",
"540 855 LINE",
"200 855 LINE"
);
}
);
vertWidth = 1000;
width = 570;
}
);
note = cid01401;
unicode = 300C;
},
{
glyphname = cornerbracketright;
lastChange = "2017-04-16 02:19:06 +0000";
layers = (
{
layerId = "2D3EB4F9-7033-45C7-BDD9-00BB8F447983";
paths = (
{
closed = 1;
nodes = (
"370 540 LINE",
"227 540 LINE",
"227 35 LINE",
"30 35 LINE",
"30 -95 LINE",
"370 -95 LINE"
);
}
);
vertWidth = 1000;
width = 570;
}
);
note = cid01402;
unicode = 300D;
},
{
glyphname = dblanglebracketleft;
lastChange = "2017-04-16 02:18:56 +0000";
layers = (
{
layerId = "2D3EB4F9-7033-45C7-BDD9-00BB8F447983";
paths = (
{
closed = 1;
nodes = (
"310 380 LINE",
"485 825 LINE",
"385 855 LINE",
"200 380 LINE",
"385 -95 LINE",
"485 -65 LINE"
);
},
{
closed = 1;
nodes = (
"491 380 LINE",
"666 825 LINE",
"566 855 LINE",
"381 380 LINE",
"566 -95 LINE",
"666 -65 LINE"
);
}
);
vertWidth = 1000;
width = 696;
}
);
note = cid01399;
unicode = 300A;
},
{
glyphname = dblanglebracketright;
lastChange = "2017-04-16 02:19:06 +0000";
layers = (
{
layerId = "2D3EB4F9-7033-45C7-BDD9-00BB8F447983";
paths = (
{
closed = 1;
nodes = (
"311 -95 LINE",
"496 380 LINE",
"311 855 LINE",
"211 825 LINE",
"386 380 LINE",
"211 -65 LINE"
);
},
{
closed = 1;
nodes = (
"130 -95 LINE",
"315 380 LINE",
"130 855 LINE",
"30 825 LINE",
"205 380 LINE",
"30 -65 LINE"
);
}
);
vertWidth = 1000;
width = 696;
}
);
note = cid01400;
unicode = 300B;
},
{
glyphname = tortoiseshellbracketleft;
lastChange = "2017-04-16 02:18:56 +0000";
layers = (
{
layerId = "2D3EB4F9-7033-45C7-BDD9-00BB8F447983";
paths = (
{
closed = 1;
nodes = (
"444 -108 LINE",
"500 -14 LINE",
"332 94 LINE",
"332 666 LINE",
"500 774 LINE",
"444 868 LINE",
"200 712 LINE",
"200 48 LINE"
);
}
);
vertWidth = 1000;
width = 530;
}
);
note = cid01409;
unicode = 3014;
},
{
glyphname = tortoiseshellbracketright;
lastChange = "2017-04-16 02:19:06 +0000";
layers = (
{
layerId = "2D3EB4F9-7033-45C7-BDD9-00BB8F447983";
paths = (
{
closed = 1;
nodes = (
"330 48 LINE",
"330 712 LINE",
"86 868 LINE",
"30 774 LINE",
"198 666 LINE",
"198 94 LINE",
"30 -14 LINE",
"86 -108 LINE"
);
}
);
vertWidth = 1000;
width = 530;
}
);
note = cid01410;
unicode = 3015;
},
{
glyphname = whitecornerbracketleft;
lastChange = "2017-04-16 02:18:56 +0000";
layers = (
{
layerId = "2D3EB4F9-7033-45C7-BDD9-00BB8F447983";
paths = (
{
closed = 1;
nodes = (
"575 665 LINE",
"575 855 LINE",
"200 855 LINE",
"200 195 LINE",
"405 195 LINE",
"405 665 LINE"
);
},
{
closed = 1;
nodes = (
"525 805 LINE",
"525 715 LINE",
"355 715 LINE",
"355 245 LINE",
"250 245 LINE",
"250 805 LINE"
);
}
);
vertWidth = 1000;
width = 605;
}
);
note = cid01403;
unicode = 300E;
},
{
glyphname = whitecornerbracketright;
lastChange = "2017-04-16 02:19:06 +0000";
layers = (
{
layerId = "2D3EB4F9-7033-45C7-BDD9-00BB8F447983";
paths = (
{
closed = 1;
nodes = (
"30 95 LINE",
"30 -95 LINE",
"405 -95 LINE",
"405 565 LINE",
"200 565 LINE",
"200 95 LINE"
);
},
{
closed = 1;
nodes = (
"80 -45 LINE",
"80 45 LINE",
"250 45 LINE",
"250 515 LINE",
"355 515 LINE",
"355 -45 LINE"
);
}
);
vertWidth = 1000;
width = 605;
}
);
note = cid01404;
unicode = 300F;
},
{
glyphname = whitelenticularbracketleft;
lastChange = "2017-04-16 02:18:56 +0000";
layers = (
{
layerId = "2D3EB4F9-7033-45C7-BDD9-00BB8F447983";
paths = (
{
closed = 1;
nodes = (
"543 -78 LINE",
"385 -4 OFFCURVE",
"280 154 OFFCURVE",
"280 380 CURVE SMOOTH",
"280 606 OFFCURVE",
"385 764 OFFCURVE",
"543 838 CURVE",
"543 855 LINE",
"200 855 LINE",
"200 -95 LINE",
"543 -95 LINE"
);
},
{
closed = 1;
nodes = (
"226 -69 LINE",
"226 829 LINE",
"475 829 LINE",
"381 770 OFFCURVE",
"254 638 OFFCURVE",
"254 380 CURVE SMOOTH",
"254 122 OFFCURVE",
"381 -10 OFFCURVE",
"475 -69 CURVE"
);
}
);
vertWidth = 1000;
width = 573;
}
);
note = cid01411;
unicode = 3016;
},
{
glyphname = whitelenticularbracketright;
lastChange = "2017-04-16 02:19:06 +0000";
layers = (
{
layerId = "2D3EB4F9-7033-45C7-BDD9-00BB8F447983";
paths = (
{
closed = 1;
nodes = (
"30 -95 LINE",
"373 -95 LINE",
"373 855 LINE",
"30 855 LINE",
"30 838 LINE",
"188 764 OFFCURVE",
"293 606 OFFCURVE",
"293 380 CURVE SMOOTH",
"293 154 OFFCURVE",
"188 -4 OFFCURVE",
"30 -78 CURVE"
);
},
{
closed = 1;
nodes = (
"98 -69 LINE",
"192 -10 OFFCURVE",
"319 122 OFFCURVE",
"319 380 CURVE SMOOTH",
"319 638 OFFCURVE",
"192 770 OFFCURVE",
"98 829 CURVE",
"347 829 LINE",
"347 -69 LINE"
);
}
);
vertWidth = 1000;
width = 573;
}
);
note = cid01412;
unicode = 3017;
},
{
glyphname = bracketleft.full;
lastChange = "2017-04-16 02:18:56 +0000";
layers = (
{
layerId = "2D3EB4F9-7033-45C7-BDD9-00BB8F447983";
paths = (
{
closed = 1;
nodes = (
"200 -95 LINE",
"461 -95 LINE",
"461 -1 LINE",
"332 -1 LINE",
"332 761 LINE",
"461 761 LINE",
"461 855 LINE",
"200 855 LINE"
);
}
);
vertWidth = 1000;
width = 491;
}
);
note = cid59050;
unicode = FF3B;
},
{
glyphname = bracketright.full;
lastChange = "2017-04-16 02:19:06 +0000";
layers = (
{
layerId = "2D3EB4F9-7033-45C7-BDD9-00BB8F447983";
paths = (
{
closed = 1;
nodes = (
"291 855 LINE",
"30 855 LINE",
"30 761 LINE",
"159 761 LINE",
"159 -1 LINE",
"30 -1 LINE",
"30 -95 LINE",
"291 -95 LINE"
);
}
);
vertWidth = 1000;
width = 491;
}
);
note = cid59052;
unicode = FF3D;
},
{
glyphname = parenleft.full;
lastChange = "2017-04-16 02:18:56 +0000";
layers = (
{
layerId = "2D3EB4F9-7033-45C7-BDD9-00BB8F447983";
paths = (
{
closed = 1;
nodes = (
"511 -54 LINE",
"419 47 OFFCURVE",
"336 181 OFFCURVE",
"336 380 CURVE SMOOTH",
"336 579 OFFCURVE",
"419 713 OFFCURVE",
"511 814 CURVE",
"396 863 LINE",
"295 765 OFFCURVE",
"200 604 OFFCURVE",
"200 380 CURVE SMOOTH",
"200 156 OFFCURVE",
"295 -5 OFFCURVE",
"396 -103 CURVE"
);
}
);
vertWidth = 1000;
width = 541;
}
);
note = cid58999;
unicode = FF08;
},
{
glyphname = parenright.full;
lastChange = "2017-04-16 02:19:06 +0000";
layers = (
{
layerId = "2D3EB4F9-7033-45C7-BDD9-00BB8F447983";
paths = (
{
closed = 1;
nodes = (
"30 814 LINE",
"122 713 OFFCURVE",
"205 579 OFFCURVE",
"205 380 CURVE SMOOTH",
"205 181 OFFCURVE",
"122 47 OFFCURVE",
"30 -54 CURVE",
"145 -103 LINE",
"246 -5 OFFCURVE",
"341 156 OFFCURVE",
"341 380 CURVE SMOOTH",
"341 604 OFFCURVE",
"246 765 OFFCURVE",
"145 863 CURVE"
);
}
);
vertWidth = 1000;
width = 541;
}
);
note = cid59000;
unicode = FF09;
},
{
glyphname = "dot-kata";
lastChange = "2017-04-16 02:18:14 +0000";
layers = (
{
layerId = "2D3EB4F9-7033-45C7-BDD9-00BB8F447983";
paths = (
{
closed = 1;
nodes = (
"150 303 OFFCURVE",
"213 240 OFFCURVE",
"290 240 CURVE SMOOTH",
"367 240 OFFCURVE",
"430 303 OFFCURVE",
"430 380 CURVE SMOOTH",
"430 457 OFFCURVE",
"367 520 OFFCURVE",
"290 520 CURVE SMOOTH",
"213 520 OFFCURVE",
"150 457 OFFCURVE",
"150 380 CURVE SMOOTH"
);
}
